<svg xmlns="http://www.w3.org/2000/svg" viewBox="0 0 32 32" id="Edit"><path d="M27.65.94a1.498 1.498 0 0 0-2.12 0L14.06 12.4c-.26.26-.41.61-.43.98l-.2 3.61c-.02.42.14.84.44 1.14.28.28.66.44 1.06.44h.08l3.61-.2c.36-.02.71-.18.97-.44L31.06 6.48c.28-.29.44-.67.44-1.06 0-.4-.16-.78-.44-1.07L27.65.94z" fill="#34a853" class="color000000 svgShape"></path><path d="M5.564 31.5H22.2a5.07 5.07 0 0 0 5.065-5.064V16.18a1.5 1.5 0 0 0-3 0v10.255a2.067 2.067 0 0 1-2.065 2.064H5.564A2.067 2.067 0 0 1 3.5 26.436V9.8c0-1.138.926-2.065 2.064-2.065H15.82a1.5 1.5 0 0 0 0-3H5.564A5.07 5.07 0 0 0 .5 9.801v16.635A5.07 5.07 0 0 0 5.564 31.5z" fill="#34a853" class="color000000 svgShape"></path></svg>